<svg xmlns="http://www.w3.org/2000/svg" xmlns:xlink="http://www.w3.org/1999/xlink" width="292.87" height="293.606" viewBox="0 0 292.87 293.606"><defs><linearGradient id="linear-gradient" x1="0.736" y1="0.965" x2="0" y2="0.132" gradientUnits="objectBoundingBox"><stop offset="0" stop-color="#31cecd"></stop><stop offset="0.473" stop-color="#291a77"></stop><stop offset="1" stop-color="#31d3cf"></stop></linearGradient><linearGradient id="linear-gradient-2" x1="1.055" y1="4.245" x2="-0.054" y2="4.84" gradientUnits="objectBoundingBox"><stop offset="0" stop-color="#31cecd"></stop><stop offset="0.483" stop-color="#291676"></stop><stop offset="1" stop-color="#30cccc"></stop></linearGradient><linearGradient id="linear-gradient-4" x1="0.5" x2="0.5" y2="0.987" gradientUnits="objectBoundingBox"><stop offset="0" stop-color="#31cccd"></stop><stop offset="0.493" stop-color="#291676"></stop><stop offset="1" stop-color="#30d0ce"></stop></linearGradient><linearGradient id="linear-gradient-6" x1="0.736" y1="0.035" y2="0.868" xlink:href="#linear-gradient"></linearGradient><linearGradient id="linear-gradient-7" x1="0.5" x2="0.5" y2="1" gradientUnits="objectBoundingBox"><stop offset="0" stop-color="#aa99e6"></stop><stop offset="1" stop-color="#5640a4"></stop></linearGradient></defs><g id="Group_2851" data-name="Group 2851" transform="translate(-8076.271 -1477.882)"><g id="Group_2850" data-name="Group 2850" transform="translate(8076.271 1477.882)"><path id="Union_37" data-name="Union 37" d="M41.6,0H0V10.661H38.654L162.389,228.288a5.327,5.327,0,0,0,4.723,2.7h41.666v-10.66H170.125L46.389,2.7A5.332,5.332,0,0,0,41.747,0Z" transform="translate(251.712 260.889) rotate(180)" fill="url(#linear-gradient)"></path><path id="Line_72" data-name="Line 72" d="M251.637,4.661H-.669A5.331,5.331,0,0,1-6-.669,5.331,5.331,0,0,1-.669-6H251.637a5.331,5.331,0,0,1,5.331,5.331A5.331,5.331,0,0,1,251.637,4.661Z" transform="translate(20.951 102.532)" fill="url(#linear-gradient-2)"></path><path id="Line_73" data-name="Line 73" d="M251.637,4.661H-.669A5.331,5.331,0,0,1-6-.669,5.331,5.331,0,0,1-.669-6H251.637a5.331,5.331,0,0,1,5.331,5.331A5.331,5.331,0,0,1,251.637,4.661Z" transform="translate(20.951 147.708)" fill="url(#linear-gradient-2)"></path><path id="Line_75" data-name="Line 75" d="M-.669,256.967A5.331,5.331,0,0,1-6,251.637V-.669A5.331,5.331,0,0,1-.669-6,5.331,5.331,0,0,1,4.661-.669V251.637a5.331,5.331,0,0,1-5.331,5.331Z" transform="translate(147.943 21.688)" fill="url(#linear-gradient-4)"></path><path id="Line_74" data-name="Line 74" d="M251.637,4.661H-.669A5.331,5.331,0,0,1-6-.669,5.331,5.331,0,0,1-.669-6H251.637a5.331,5.331,0,0,1,5.331,5.331A5.331,5.331,0,0,1,251.637,4.661Z" transform="translate(20.951 192.882)" fill="url(#linear-gradient-2)"></path><path id="Union_39" data-name="Union 39" d="M41.6,230.985H0V220.324H38.654L162.389,2.7A5.327,5.327,0,0,1,167.1,0H208.77V10.66H170.117L46.389,228.288a5.332,5.332,0,0,1-4.639,2.7Z" transform="translate(42.935 29.902)" fill="url(#linear-gradient-6)"></path><ellipse id="Ellipse_138" data-name="Ellipse 138" cx="15.526" cy="14.951" rx="15.526" ry="14.951" transform="translate(20.27 20.089)" fill="#7561bb"></ellipse><ellipse id="Ellipse_139" data-name="Ellipse 139" cx="15.526" cy="14.951" rx="15.526" ry="14.951" transform="translate(20.27 240.902)" fill="#7561bb"></ellipse><circle id="Ellipse_136" data-name="Ellipse 136" cx="14.951" cy="14.951" r="14.951" transform="translate(242.233 240.902)" fill="#7561bb"></circle><circle id="Ellipse_130" data-name="Ellipse 130" cx="14.951" cy="14.951" r="14.951" transform="translate(242.233 20.089)" fill="#7561bb"></circle><circle id="Ellipse_131" data-name="Ellipse 131" cx="14.951" cy="14.951" r="14.951" transform="translate(262.968 86.912)" fill="#7561bb"></circle><circle id="Ellipse_141" data-name="Ellipse 141" cx="14.951" cy="14.951" r="14.951" transform="translate(0 86.912)" fill="#7561bb"></circle><circle id="Ellipse_134" data-name="Ellipse 134" cx="14.951" cy="14.951" r="14.951" transform="translate(262.968 130.444)" fill="#7561bb"></circle><circle id="Ellipse_142" data-name="Ellipse 142" cx="14.951" cy="14.951" r="14.951" transform="translate(0 130.444)" fill="#7561bb"></circle><circle id="Ellipse_137" data-name="Ellipse 137" cx="14.951" cy="14.951" r="14.951" transform="translate(262.968 175.62)" fill="#7561bb"></circle><circle id="Ellipse_143" data-name="Ellipse 143" cx="14.951" cy="14.951" r="14.951" transform="translate(0 175.62)" fill="#7561bb"></circle><circle id="Ellipse_135" data-name="Ellipse 135" cx="14.951" cy="14.951" r="14.951" transform="translate(132.373)" fill="#7561bb"></circle><circle id="Ellipse_140" data-name="Ellipse 140" cx="14.951" cy="14.951" r="14.951" transform="translate(132.373 263.704)" fill="#7561bb"></circle><rect id="Rectangle_1252" data-name="Rectangle 1252" width="163.309" height="163.309" rx="8" transform="translate(65.242 67.99)" fill="url(#linear-gradient-7)"></rect><rect id="Rectangle_1253" data-name="Rectangle 1253" width="142.608" height="142.608" rx="8" transform="translate(75.593 78.34)" fill="#fff"></rect><text id="AI" transform="translate(104.242 180.691)" fill="#7561bb" font-size="92" font-family="Quicksand-Bold, Quicksand" font-weight="700"><tspan x="0" y="0">AI</tspan></text></g></g></svg>